<svg width="8" height="11" viewBox="0 0 8 11" fill="none" xmlns="http://www.w3.org/2000/svg">
<path fill-rule="evenodd" clip-rule="evenodd" d="M4.15886 2.73851C3.17645 2.54203 2.34427 3.30482 2.2287 4.1023C2.09 5.09626 2.74875 5.84752 3.56935 6.00932C4.56331 6.20581 5.34922 5.46609 5.51102 4.65705C5.69595 3.66308 4.95634 2.90032 4.15886 2.73851ZM0.044241 4.83041C-0.129125 3.42037 0.633685 2.23001 1.31559 1.62901C2.10152 0.935549 3.33817 0.427009 4.75977 0.762183C7.1869 1.32851 8.4698 4.0676 7.24468 6.33292C7.03665 6.72588 4.8523 9.80033 4.48245 10.3551C4.36688 10.5053 4.13575 10.9098 3.98549 10.9676C3.68499 11.0948 3.51154 10.6902 3.37284 10.5168L1.52361 7.84705C0.772355 6.76062 0.206049 6.20578 0.044241 4.83041Z" fill="#26E0FA"/>
</svg>
